<mxfile host="app.diagrams.net" modified="2023-12-19T13:14:36.771Z" agent="Mozilla/5.0 (Windows NT 10.0; Win64; x64) AppleWebKit/537.36 (KHTML, like Gecko) Chrome/120.0.0.0 Safari/537.36" etag="CwsBNoaASOrsVZzMJivP" version="22.1.11" type="device">
  <diagram name="PÃ¡gina-1" id="9HlGbaHD_Hn5RODaw-qJ">
    <mxGraphModel dx="1434" dy="738" grid="1" gridSize="10" guides="1" tooltips="1" connect="1" arrows="1" fold="1" page="1" pageScale="1" pageWidth="827" pageHeight="1169" math="0" shadow="0">
      <root>
        <mxCell id="0" />
        <mxCell id="1" parent="0" />
        <mxCell id="0zRg9e2mISFZcSKI1_DX-1" value="affiliation (&lt;u&gt;affiliation_id&lt;/u&gt;, affiliation_name, city, country_name)" style="text;html=1;align=center;verticalAlign=middle;resizable=0;points=[];autosize=1;strokeColor=none;fillColor=none;" vertex="1" parent="1">
          <mxGeometry x="120" y="90" width="340" height="30" as="geometry" />
        </mxCell>
        <mxCell id="0zRg9e2mISFZcSKI1_DX-2" value="article (&lt;u&gt;DOI&lt;/u&gt;, title, publication_date, url, num_citacions, journal_id)" style="text;html=1;align=center;verticalAlign=middle;resizable=0;points=[];autosize=1;strokeColor=none;fillColor=none;" vertex="1" parent="1">
          <mxGeometry x="120" y="450" width="370" height="30" as="geometry" />
        </mxCell>
        <mxCell id="0zRg9e2mISFZcSKI1_DX-3" value="author (&lt;u&gt;author_id&lt;/u&gt;, author_name, importance)" style="text;html=1;align=center;verticalAlign=middle;resizable=0;points=[];autosize=1;strokeColor=none;fillColor=none;" vertex="1" parent="1">
          <mxGeometry x="120" y="330" width="260" height="30" as="geometry" />
        </mxCell>
        <mxCell id="0zRg9e2mISFZcSKI1_DX-4" value="author_affiliation (&lt;u&gt;author_id&lt;/u&gt;, &lt;u&gt;affiliation_id&lt;/u&gt;)" style="text;html=1;align=center;verticalAlign=middle;resizable=0;points=[];autosize=1;strokeColor=none;fillColor=none;" vertex="1" parent="1">
          <mxGeometry x="120" y="210" width="240" height="30" as="geometry" />
        </mxCell>
        <mxCell id="0zRg9e2mISFZcSKI1_DX-5" value="author_article (&lt;u&gt;DOI&lt;/u&gt;, &lt;u&gt;author_id&lt;/u&gt;)" style="text;html=1;align=center;verticalAlign=middle;resizable=0;points=[];autosize=1;strokeColor=none;fillColor=none;" vertex="1" parent="1">
          <mxGeometry x="120" y="570" width="190" height="30" as="geometry" />
        </mxCell>
        <mxCell id="0zRg9e2mISFZcSKI1_DX-6" value="journal (&lt;u&gt;journal_id&lt;/u&gt;, journal_name, issn, JIF, JIF_Quartile)" style="text;html=1;align=center;verticalAlign=middle;resizable=0;points=[];autosize=1;strokeColor=none;fillColor=none;" vertex="1" parent="1">
          <mxGeometry x="120" y="690" width="320" height="30" as="geometry" />
        </mxCell>
        <mxCell id="0zRg9e2mISFZcSKI1_DX-8" value="" style="endArrow=classic;html=1;rounded=0;exitX=0.796;exitY=0.033;exitDx=0;exitDy=0;exitPerimeter=0;entryX=0.284;entryY=1.091;entryDx=0;entryDy=0;entryPerimeter=0;" edge="1" parent="1" source="0zRg9e2mISFZcSKI1_DX-4" target="0zRg9e2mISFZcSKI1_DX-1">
          <mxGeometry width="50" height="50" relative="1" as="geometry">
            <mxPoint x="270" y="310" as="sourcePoint" />
            <mxPoint x="320" y="260" as="targetPoint" />
            <Array as="points">
              <mxPoint x="310" y="170" />
              <mxPoint x="217" y="170" />
            </Array>
          </mxGeometry>
        </mxCell>
        <mxCell id="0zRg9e2mISFZcSKI1_DX-9" value="" style="endArrow=classic;html=1;rounded=0;exitX=0.543;exitY=1.044;exitDx=0;exitDy=0;exitPerimeter=0;entryX=0.308;entryY=0;entryDx=0;entryDy=0;entryPerimeter=0;" edge="1" parent="1" source="0zRg9e2mISFZcSKI1_DX-4" target="0zRg9e2mISFZcSKI1_DX-3">
          <mxGeometry width="50" height="50" relative="1" as="geometry">
            <mxPoint x="270" y="350" as="sourcePoint" />
            <mxPoint x="320" y="300" as="targetPoint" />
            <Array as="points">
              <mxPoint x="250" y="290" />
              <mxPoint x="200" y="290" />
            </Array>
          </mxGeometry>
        </mxCell>
        <mxCell id="0zRg9e2mISFZcSKI1_DX-10" value="" style="endArrow=classic;html=1;rounded=0;exitX=0.552;exitY=-0.151;exitDx=0;exitDy=0;exitPerimeter=0;entryX=0.17;entryY=1.068;entryDx=0;entryDy=0;entryPerimeter=0;" edge="1" parent="1" source="0zRg9e2mISFZcSKI1_DX-5" target="0zRg9e2mISFZcSKI1_DX-2">
          <mxGeometry width="50" height="50" relative="1" as="geometry">
            <mxPoint x="240" y="510" as="sourcePoint" />
            <mxPoint x="290" y="460" as="targetPoint" />
            <Array as="points">
              <mxPoint x="225" y="540" />
              <mxPoint x="183" y="540" />
            </Array>
          </mxGeometry>
        </mxCell>
        <mxCell id="0zRg9e2mISFZcSKI1_DX-11" value="" style="endArrow=classic;html=1;rounded=0;exitX=0.766;exitY=1.091;exitDx=0;exitDy=0;exitPerimeter=0;entryX=0.3;entryY=1.16;entryDx=0;entryDy=0;entryPerimeter=0;" edge="1" parent="1" source="0zRg9e2mISFZcSKI1_DX-5" target="0zRg9e2mISFZcSKI1_DX-3">
          <mxGeometry width="50" height="50" relative="1" as="geometry">
            <mxPoint x="220" y="510" as="sourcePoint" />
            <mxPoint x="270" y="460" as="targetPoint" />
            <Array as="points">
              <mxPoint x="266" y="640" />
              <mxPoint x="100" y="640" />
              <mxPoint x="100" y="400" />
              <mxPoint x="198" y="400" />
            </Array>
          </mxGeometry>
        </mxCell>
        <mxCell id="0zRg9e2mISFZcSKI1_DX-12" value="" style="endArrow=classic;html=1;rounded=0;exitX=0.887;exitY=1.139;exitDx=0;exitDy=0;exitPerimeter=0;entryX=0.245;entryY=-0.083;entryDx=0;entryDy=0;entryPerimeter=0;" edge="1" parent="1" source="0zRg9e2mISFZcSKI1_DX-2" target="0zRg9e2mISFZcSKI1_DX-6">
          <mxGeometry width="50" height="50" relative="1" as="geometry">
            <mxPoint x="210" y="620" as="sourcePoint" />
            <mxPoint x="260" y="570" as="targetPoint" />
            <Array as="points">
              <mxPoint x="448" y="660" />
              <mxPoint x="198" y="660" />
            </Array>
          </mxGeometry>
        </mxCell>
      </root>
    </mxGraphModel>
  </diagram>
</mxfile>
